# xmcd
#
# Track frame offsets: 
#        150
#        16902
#        28966
#        44064
#        59907
#        74894
#        93799
#        108155
#        124343
#        142778
#        155152
#        179104
#        195125
#
# Disc length: 2742 seconds
#
# Revision: 0
# Processed by: cddbd v1.5.2PL0 Copyright (c) Steve Scherf et al.
# Submitted via: ExactAudioCopyFreeDBPlugin 1.0
#
DISCID=c30ab40d
DTITLE=Twang Dragons - Love Junkie
DYEAR=2006
DGENRE=Country
TTITLE0=Get In (Or Get Out Of The Way)
TTITLE1=Downsize
TTITLE2=Drinkin' About You
TTITLE3=Pennies
TTITLE4=Cliché
TTITLE5=Worth It
TTITLE6=Love Junkie
TTITLE7=Quiver
TTITLE8=Sandbox
TTITLE9=Booed My Last Hoo
TTITLE10=Patty Always Calls
TTITLE11=Your Own Road
TTITLE12=Born With Wings
EXTD=
EXTT0=
EXTT1=
EXTT2=
EXTT3=
EXTT4=
EXTT5=
EXTT6=
EXTT7=
EXTT8=
EXTT9=
EXTT10=
EXTT11=
EXTT12=
PLAYORDER=
